<svg width="126" height="126" viewBox="0 0 126 126" fill="none" xmlns="http://www.w3.org/2000/svg">
<path d="M63.3549 0.976685C97.8242 0.976685 125.82 28.9195 125.82 63.3888L125.815 64.1954C125.382 98.2933 97.5552 125.802 63.3549 125.802L62.5483 125.797C28.45 125.365 0.891052 97.5888 0.891052 63.3888C0.891267 28.9197 28.8858 0.976944 63.3549 0.976685ZM63.3549 2.97668C29.9882 2.97694 2.89127 30.0264 2.89105 63.3888C2.89105 96.7514 29.9881 123.802 63.3549 123.802C96.722 123.802 123.82 96.7515 123.82 63.3888C123.82 30.0262 96.7218 2.97668 63.3549 2.97668ZM63.8549 33.9308C80.4001 33.9309 93.8383 47.3435 93.8383 63.8888L93.8286 64.6622C93.4174 80.8499 80.1414 93.8467 63.8549 93.8468L63.0825 93.837C47.1507 93.4336 34.2869 80.5931 33.8823 64.6622L33.8725 63.8888C33.8725 47.3436 47.3098 33.931 63.8549 33.9308ZM63.8549 34.9308C47.861 34.931 34.8725 47.897 34.8725 63.8888C34.8727 79.8805 47.8611 92.8465 63.8549 92.8468C79.8488 92.8467 92.8381 79.8805 92.8383 63.8888C92.8383 47.8969 79.8489 34.9309 63.8549 34.9308Z" fill="#B31116"/>
</svg>
