<svg
  width="251"
  height="126"
  viewBox="0 0 251 126"
  fill="none"
  xmlns="http://www.w3.org/2000/svg"
>
  <path
    d="M247.748 63.0897C247.748 30.2772 221.149 3.67685 188.336 3.67664H63.3032C30.4907 3.67684 3.89105 30.2772 3.89105 63.0897C3.89137 95.9019 30.4909 122.502 63.3032 122.502H188.336C221.149 122.502 247.748 95.9019 247.748 63.0897ZM185.786 118.512H180.743C150.41 118.512 125.82 93.9216 125.82 63.5887C125.82 33.2557 150.41 8.66596 180.743 8.66589H185.786V118.512ZM250.744 63.8964C250.315 97.7252 222.972 125.068 189.143 125.497L188.336 125.502H63.3032C28.8341 125.502 0.891374 97.5588 0.891052 63.0897C0.891052 28.6204 28.8339 0.676836 63.3032 0.676636H188.336L189.143 0.681519C223.241 1.11361 250.748 28.8897 250.748 63.0897L250.744 63.8964Z"
    fill="#B31116"
  />
</svg>
